<svg xmlns="http://www.w3.org/2000/svg" version="1.1" xmlns:xlink="http://www.w3.org/1999/xlink" xmlns:svgjs="http://svgjs.dev/svgjs" width="68" height="68"><svg version="1.0" xmlns="http://www.w3.org/2000/svg" width="68" height="68" viewBox="0 0 1870 1870">
    <style>
        @media (prefers-color-scheme: light)  { g { fill: #000} }
        @media (prefers-color-scheme: dark) { g { fill: #fff} }
    </style>
    <g transform="translate(0,1270) scale(1,-1)" fill="#000000" stroke="none">
        <path fill="#ff0000" d="M243 928 c-12 -13 -25 -36 -28 -51 l-7 -28 108 3 c103 3 109 4 106 23 -2 11 -11 31 -21 45 -15 21 -27 25 -77 28 -51 2 -63 0 -81 -20z"></path>
        <path d="M540 931 c-21 -11 -43 -34 -55 -59 l-19 -40 -136 -4 c-150 -4 -185 -15 -247 -80 -62 -65 -63 -70 -63 -475 l0 -368 24 -52 c27 -57 84 -106 145 -124 20 -6 100 -9 182 -7 l147 3 -66 55 c-123 103 -207 258 -219 405 -5 59 -3 73 12 85 30 25 48 1 61 -86 6 -43 21 -104 33 -134 47 -121 172 -250 299 -306 51 -23 62 -24 298 -24 l244 0 69 35 c124 62 247 197 286 314 8 26 21 80 28 121 13 80 32 105 62 80 14 -12 16 -25 12 -75 -16 -170 -116 -341 -261 -447 l-39 -28 154 0 c85 0 171 5 192 11 47 13 111 69 140 123 21 40 22 50 22 421 0 417 1 409 -64 478 -53 58 -93 71 -244 77 l-137 5 -18 35 c-9 19 -32 45 -51 57 -34 23 -36 23 -395 23 -334 0 -364 -1 -396 -19z m533 -171 c276 -85 411 -399 285 -660 -88 -182 -301 -294 -496 -262 -180 30 -342 175 -386 347 -94 360 242 684 597 575z m585 -99 c8 -4 12 -19 10 -32 -3 -24 -4 -24 -117 -24 -95 0 -116 3 -124 17 -8 12 -7 21 2 32 11 13 34 16 115 16 55 0 107 -4 114 -9z"></path>
        <path d="M790 720 c-129 -47 -232 -154 -271 -282 -17 -55 -21 -88 -17 -158 4 -77 9 -98 41 -163 64 -130 184 -218 329 -240 178 -28 366 70 447 231 121 240 5 526 -247 611 -82 28 -206 28 -282 1z m228 -20 c116 -27 221 -111 274 -218 31 -62 33 -73 33 -172 0 -97 -2 -110 -31 -170 -39 -84 -111 -155 -194 -194 -87 -40 -207 -48 -292 -18 -115 40 -205 128 -249 239 -31 79 -32 206 -2 281 74 185 274 295 461 252z"></path>
        <path d="M857 650 c-101 -26 -197 -105 -240 -198 -31 -67 -31 -217 0 -284 32 -71 103 -141 176 -174 87 -40 196 -40 279 -2 75 35 141 98 175 167 25 49 28 67 28 151 0 113 -19 163 -89 238 -79 85 -222 129 -329 102z m217 -54 c60 -29 113 -82 148 -148 19 -36 23 -58 23 -138 0 -87 -3 -100 -30 -149 -33 -61 -86 -109 -154 -143 -71 -34 -187 -33 -263 5 -62 31 -116 84 -149 149 -31 59 -38 182 -15 242 70 183 270 265 440 182z"></path>
    </g>
</svg>